<svg viewBox="0 0 50 50" xmlns="http://www.w3.org/2000/svg" height="300" width="300">
  <path d="M22 23q-3.15 0-5.325-2.175Q14.5 18.65 14.5 15.5q0-3.15 2.175-5.325Q18.85 8 22 8q3.15 0 5.325 2.175Q29.5 12.35 29.5 15.5q0 3.15-2.175 5.325Q25.15 23 22 23Zm14.5 19L34 39v-7.35q-1.8-.7-2.9-2.225Q30 27.9 30 26q0-2.5 1.75-4.25T36 20q2.5 0 4.25 1.75T42 26q0 1.9-1.1 3.425T38 31.65V32l2 2-2 2 2 2ZM36 29q1.25 0 2.125-.875T39 26q0-1.25-.875-2.125T36 23q-1.25 0-2.125.875T33 26q0 1.25.875 2.125T36 29Zm-9.9-1.7q.25 2.05 1.275 3.75Q28.4 32.75 30 34v6H6v-4.75q0-1.7.95-3.1.95-1.4 2.45-2.15 2.95-1.5 6.125-2.25T22 27q1 0 2.05.075 1.05.075 2.05.225Z" />
</svg>